<svg xmlns="http://www.w3.org/2000/svg">
    <symbol id="symbol-h" viewBox="0 0 697 799" fill="none">
        <path fill-rule="evenodd" clip-rule="evenodd" d="M245.112 340H432.082C485.793 340 530.618 362.912 558.49 401.63C586.34 440.35 587.199 504.956 570.958 555.498L550.194 620.023C541.522 646.966 500.918 774.384 493 799H391C391 799 392.559 800.366 477.767 535.5C485.29 512.126 489.586 474.185 477.767 457.777C465.968 441.37 446.06 431.66 419.718 431.66H266.886C236.876 431.66 210.283 451.178 200.999 480.005L245.112 340Z" fill="url(#paint0_linear_22728_11332)"/>
        <path fill-rule="evenodd" clip-rule="evenodd" d="M99.3445 799H-0.369385C84.4982 532.509 170.329 266.331 255.698 0H355.276C354.856 1.33198 354.431 2.6675 353.999 4.00646C215.866 429.03 262.985 285.497 99.3445 799Z" fill="#F0145A"/>
        <linearGradient id="paint0_linear_22728_11332" x1="521.823" y1="798.999" x2="268.503" y2="516.696" gradientUnits="userSpaceOnUse">
            <stop stop-color="#F0145A"/>
            <stop offset="1" stop-color="#693264"/>
        </linearGradient>
    </symbol>

    <symbol id="header_logo" viewBox="0 0 130 60" fill="none" xmlns="http://www.w3.org/2000/svg">
        <path d="M4.95672 0H0V35.7986H4.95672V22.5177C4.95672 20.2709 5.51557 18.4984 6.63326 17.2502C7.75095 16.002 9.2817 15.353 11.1769 15.353C12.8049 15.353 14.1655 15.9521 15.2589 17.1004C16.3523 18.2738 16.9112 19.7466 16.9112 21.5191V35.8236H21.8922V21.5191C21.8922 18.2238 20.9932 15.6276 19.1951 13.6804C17.3971 11.7332 15.0402 10.7596 12.1731 10.7596C11.347 10.7596 10.5209 10.8594 9.71906 11.0841C8.89294 11.3088 8.2369 11.5584 7.70235 11.833C7.16781 12.1076 6.65756 12.4072 6.1959 12.7567C5.73424 13.1062 5.41838 13.3558 5.27259 13.5056C5.1268 13.6554 5.00532 13.7552 4.95672 13.8301V0Z" fill="#F0145A"/>
        <path d="M32.9727 0H27.8628V35.7689H32.9727V0Z" fill="white"/>
        <path d="M63.1115 25.2935L63.367 22.7386C63.367 19.315 62.2428 16.4535 59.9434 14.1541C57.6439 11.8546 54.7824 10.7305 51.3588 10.7305C47.9352 10.7305 44.9715 11.9568 42.5188 14.4096C40.0661 16.8623 38.8397 19.7749 38.8397 23.2496C38.8397 26.8265 40.1172 29.8924 42.621 32.4473C45.1248 35.0022 48.1396 36.2797 51.6143 36.2797C52.9429 36.2797 54.1692 36.0753 55.3956 35.7176C56.622 35.3088 57.6439 34.9 58.3593 34.4912C59.1258 34.0313 59.8923 33.5204 60.5565 32.9583C61.2208 32.3962 61.6807 31.9874 61.8851 31.7319C62.0895 31.4764 62.2428 31.3231 62.345 31.1698L59.0236 27.8484L58.2571 28.8193C57.7461 29.4325 56.8775 30.0457 55.6511 30.7099C54.3736 31.3742 53.0451 31.6808 51.6143 31.6808C49.6215 31.6808 47.9352 31.0676 46.5045 29.7902C45.0737 28.5127 44.2051 27.0309 43.9496 25.2935H63.1115ZM51.3588 15.0738C53.2495 15.0738 54.7824 15.6359 56.0599 16.709C57.2862 17.8331 58.0527 19.2128 58.3593 20.9501H44.154C44.6138 19.2128 45.4314 17.8331 46.7089 16.709C47.9352 15.6359 49.5193 15.0738 51.3588 15.0738Z" fill="white"/>
        <path d="M86.9429 34.2868C86.9429 36.5351 86.2786 38.3747 84.899 39.8054C83.5704 41.1851 81.8842 41.9005 79.7891 41.9005C78.8694 41.9005 77.9496 41.7472 77.0809 41.4917C76.2122 41.2362 75.548 40.9296 74.9859 40.5719C74.4238 40.2142 73.9128 39.8565 73.4018 39.3967C72.9419 38.9368 72.6354 38.6302 72.4821 38.4769C72.3288 38.3236 72.2266 38.1703 72.1244 38.0681L68.803 41.3895L69.2118 41.9005C69.4673 42.2582 69.9271 42.718 70.5403 43.229C71.1535 43.6889 71.8689 44.1999 72.6865 44.7109C73.504 45.1708 74.526 45.5796 75.8035 45.9372C77.0809 46.2949 78.4095 46.4993 79.7891 46.4993C83.2638 46.4993 86.1253 45.3241 88.5269 42.9735C90.8775 40.5719 92.0527 37.7104 92.0527 34.2357V11.2415H86.9429V13.7964L86.0742 13.0299C85.5121 12.5189 84.6435 12.0079 83.4171 11.4969C82.1907 10.986 80.8622 10.7305 79.5336 10.7305C76.4166 10.7305 73.7595 11.9057 71.4601 14.3074C69.1607 16.709 68.0365 19.5705 68.0365 22.9941C68.0365 26.4177 69.1607 29.2792 71.4601 31.6808C73.7595 34.0824 76.4166 35.2577 79.5336 35.2577C80.4023 35.2577 81.2199 35.1555 82.0885 34.9511C82.9061 34.6956 83.5704 34.4401 84.1325 34.1846C84.6946 33.9291 85.2055 33.6225 85.6654 33.2648C86.1253 32.9072 86.483 32.6517 86.5852 32.5495L86.9429 32.1918V34.2868ZM73.1463 22.9941C73.1463 20.8479 73.8106 19.0595 75.1903 17.5777C76.5699 16.0958 78.2051 15.3293 80.0446 15.3293C81.8842 15.3293 83.5193 16.0958 84.899 17.5777C86.2275 19.0595 86.9429 20.8479 86.9429 22.9941C86.9429 25.1402 86.2275 26.9287 84.899 28.4105C83.5193 29.8924 81.8842 30.6588 80.0446 30.6588C78.2051 30.6588 76.5699 29.8924 75.1903 28.4105C73.8106 26.9287 73.1463 25.1402 73.1463 22.9941Z" fill="white"/>
        <path d="M118.724 35.7687V19.9282C118.724 17.3222 117.753 15.1249 115.863 13.3876C113.972 11.5991 111.519 10.7305 108.504 10.7305C107.329 10.7305 106.154 10.8838 105.03 11.1904C103.906 11.548 102.986 11.9057 102.322 12.3145C101.657 12.7233 100.993 13.1832 100.38 13.7453C99.7666 14.2563 99.409 14.6139 99.2046 14.8183C99.0513 15.0227 98.898 15.176 98.7958 15.3293L102.117 18.6507L102.781 17.782C103.19 17.22 103.906 16.709 104.979 16.1469C106.052 15.5848 107.227 15.3293 108.504 15.3293C109.986 15.3293 111.213 15.7892 112.184 16.6579C113.154 17.5266 113.614 18.6507 113.614 19.9282L104.672 21.4611C102.475 21.8188 100.686 22.6875 99.46 24.0672C98.1826 25.4468 97.5183 27.1331 97.5183 29.1259C97.5183 31.0165 98.3359 32.6517 99.971 34.0824C101.657 35.5643 103.701 36.2797 106.205 36.2797C107.074 36.2797 107.891 36.1775 108.709 35.922C109.578 35.7176 110.242 35.4621 110.804 35.2066C111.366 34.9511 111.877 34.6445 112.337 34.2868C112.797 33.9291 113.103 33.6736 113.308 33.5715C113.461 33.4182 113.563 33.2649 113.614 33.2138V35.7687H118.724ZM106.972 31.6808C105.643 31.6808 104.57 31.3742 103.803 30.761C102.986 30.1479 102.628 29.4325 102.628 28.6149C102.628 27.7462 102.884 26.9798 103.446 26.4177C104.008 25.8556 104.774 25.4468 105.694 25.2935L113.614 24.0161V24.527C113.614 26.8265 113.052 28.5638 111.877 29.8413C110.702 31.0676 109.067 31.6808 106.972 31.6808Z" fill="white"/>
        <path d="M130 0H124.89V35.7689H130V0Z" fill="white"/>
        <path d="M0 53.1185H1.59915V58.7253H5.06396V60.0283H0V53.1185Z" fill="white"/>
        <path d="M15.5016 58.5477H12.2934L11.6814 60.0283H10.0428L13.1226 53.1185H14.702L17.7917 60.0283H16.1136L15.5016 58.5477ZM14.9982 57.3335L13.9025 54.688L12.8067 57.3335H14.9982Z" fill="white"/>
        <path d="M33.5121 53.1185L31.2516 60.0283H29.534L28.0138 55.3494L26.4443 60.0283H24.7366L22.4662 53.1185H24.1245L25.6842 57.9751L27.313 53.1185H28.7937L30.3731 58.0146L31.9821 53.1185H33.5121Z" fill="white"/>
        <path d="M50.5232 60.1468C49.819 60.1468 49.1807 59.9954 48.6082 59.6927C48.0422 59.3834 47.5947 58.959 47.2657 58.4193C46.9432 57.8731 46.782 57.2578 46.782 56.5734C46.782 55.889 46.9432 55.277 47.2657 54.7373C47.5947 54.1911 48.0422 53.7667 48.6082 53.464C49.1807 53.1547 49.8223 53 50.5331 53C51.1319 53 51.6716 53.1053 52.152 53.3159C52.6389 53.5265 53.047 53.8292 53.376 54.224L52.3494 55.1717C51.8821 54.6321 51.303 54.3622 50.612 54.3622C50.1843 54.3622 49.8026 54.4577 49.467 54.6485C49.1313 54.8328 48.8681 55.0927 48.6773 55.4283C48.493 55.764 48.4009 56.1456 48.4009 56.5734C48.4009 57.0012 48.493 57.3828 48.6773 57.7185C48.8681 58.0541 49.1313 58.3173 49.467 58.5082C49.8026 58.6924 50.1843 58.7846 50.612 58.7846C51.303 58.7846 51.8821 58.5115 52.3494 57.9653L53.376 58.9129C53.047 59.3143 52.6389 59.6203 52.152 59.8309C51.665 60.0415 51.1221 60.1468 50.5232 60.1468Z" fill="white"/>
        <path d="M62.5933 60.1468C61.876 60.1468 61.2278 59.9922 60.6487 59.6829C60.0761 59.3736 59.6253 58.9491 59.2963 58.4095C58.9738 57.8632 58.8126 57.2512 58.8126 56.5734C58.8126 55.8956 58.9738 55.2868 59.2963 54.7472C59.6253 54.201 60.0761 53.7733 60.6487 53.464C61.2278 53.1547 61.876 53 62.5933 53C63.3106 53 63.9555 53.1547 64.5281 53.464C65.1006 53.7733 65.5514 54.201 65.8804 54.7472C66.2095 55.2868 66.374 55.8956 66.374 56.5734C66.374 57.2512 66.2095 57.8632 65.8804 58.4095C65.5514 58.9491 65.1006 59.3736 64.5281 59.6829C63.9555 59.9922 63.3106 60.1468 62.5933 60.1468ZM62.5933 58.7846C63.0013 58.7846 63.3698 58.6924 63.6989 58.5082C64.0279 58.3173 64.2846 58.0541 64.4688 57.7185C64.6597 57.3828 64.7551 57.0012 64.7551 56.5734C64.7551 56.1456 64.6597 55.764 64.4688 55.4283C64.2846 55.0927 64.0279 54.8328 63.6989 54.6485C63.3698 54.4577 63.0013 54.3622 62.5933 54.3622C62.1853 54.3622 61.8168 54.4577 61.4877 54.6485C61.1587 54.8328 60.8987 55.0927 60.7079 55.4283C60.5236 55.764 60.4315 56.1456 60.4315 56.5734C60.4315 57.0012 60.5236 57.3828 60.7079 57.7185C60.8987 58.0541 61.1587 58.3173 61.4877 58.5082C61.8168 58.6924 62.1853 58.7846 62.5933 58.7846Z" fill="white"/>
        <path d="M78.7995 60.0283L78.7896 55.8824L76.7561 59.2979H76.0355L74.0119 55.9713V60.0283H72.5115V53.1185H73.8342L76.4205 57.4125L78.9673 53.1185H80.2802L80.2999 60.0283H78.7995Z" fill="white"/>
        <path d="M89.8659 53.1185C90.478 53.1185 91.0077 53.2205 91.4552 53.4245C91.9093 53.6285 92.2581 53.918 92.5016 54.2931C92.7451 54.6682 92.8668 55.1125 92.8668 55.6258C92.8668 56.1325 92.7451 56.5767 92.5016 56.9584C92.2581 57.3335 91.9093 57.623 91.4552 57.8271C91.0077 58.0245 90.478 58.1232 89.8659 58.1232H88.4741V60.0283H86.8749V53.1185H89.8659ZM89.7771 56.8202C90.2575 56.8202 90.6227 56.7182 90.8728 56.5142C91.1229 56.3036 91.2479 56.0074 91.2479 55.6258C91.2479 55.2375 91.1229 54.9414 90.8728 54.7373C90.6227 54.5268 90.2575 54.4215 89.7771 54.4215H88.4741V56.8202H89.7771Z" fill="white"/>
        <path d="M103.148 58.5477H99.9396L99.3276 60.0283H97.6889L100.769 53.1185H102.348L105.438 60.0283H103.76L103.148 58.5477ZM102.644 57.3335L101.549 54.688L100.453 57.3335H102.644Z" fill="white"/>
        <path d="M117.428 53.1185V60.0283H116.115L112.67 55.8331V60.0283H111.09V53.1185H112.413L115.848 57.3137V53.1185H117.428Z" fill="white"/>
        <path d="M127.315 57.5803V60.0283H125.716V57.5605L123.041 53.1185H124.739L126.585 56.1884L128.43 53.1185H130L127.315 57.5803Z" fill="white"/>
    </symbol>

    <symbol id="dot_separator" width="6" height="6" viewBox="0 0 6 7" fill="none">
        <circle cx="3" cy="3.5" r="3" fill="#E6E6F0"/>
    </symbol>

    <symbol id="facebook_icon_header" viewBox="0 0 24 25" fill="none">
            <path d="M24 12.5733C24 5.90541 18.6274 0.5 12 0.5C5.37258 0.5 0 5.90541 0 12.5733C0 18.5995 4.38823 23.5943 10.125 24.5V16.0633H7.07813V12.5733H10.125V9.91343C10.125 6.88755 11.9165 5.21615 14.6576 5.21615C15.9705 5.21615 17.3438 5.45195 17.3438 5.45195V8.42313H15.8306C14.3399 8.42313 13.875 9.35379 13.875 10.3086V12.5733H17.2031L16.6711 16.0633H13.875V24.5C19.6118 23.5943 24 18.5995 24 12.5733Z" fill="white"/>
    </symbol>


    <symbol id="scroll" viewBox="0 0 42 42" fill="none">
            <circle opacity="0.5" cx="21" cy="21" r="20"  stroke-width="2"/>
            <path d="M12 18L21 27L30 18"  stroke-width="2"/>
    </symbol>

    <symbol id="right_arrow" viewBox="0 0 12 13" fill="none" >
        <path d="M3.5 2L8 6.5L3.5 11" stroke-width="2"/>
    </symbol>

    <symbol id="icon_1" viewBox="0 0 92 92" fill="none">
        <rect width="92" height="92" rx="24" fill="white"/>
        <path d="M37.7339 42.125C38.8379 42.125 39.7339 41.229 39.7339 40.125V32.325C39.7339 28.838 42.5709 26 46.0579 26C49.5449 26 52.3829 28.838 52.3829 32.325V40.125C52.3829 41.229 53.2779 42.125 54.3829 42.125C55.4869 42.125 56.3829 41.229 56.3829 40.125V32.325C56.3839 26.632 51.7519 22 46.0579 22C40.3659 22 35.7339 26.632 35.7339 32.325V40.125C35.7339 41.229 36.6299 42.125 37.7339 42.125Z" fill="url(#paint0_linear_22728_11375)"/>
        <path d="M69 37.6328H58.384V40.1268C58.384 42.3328 56.59 44.1268 54.384 44.1268C52.178 44.1268 50.384 42.3328 50.384 40.1268V37.6328H41.735V40.1268C41.735 42.3328 39.941 44.1268 37.735 44.1268C35.529 44.1268 33.735 42.3328 33.735 40.1268V37.6328H23C22.448 37.6328 22.107 38.0678 22.238 38.6038L29.236 67.1008C29.658 68.7028 31.344 70.0018 33 70.0018H59C60.658 70.0018 62.342 68.7028 62.766 67.1008L69.762 38.6038C69.893 38.0668 69.553 37.6328 69 37.6328Z" fill="url(#paint1_linear_22728_11375)"/>
        <path d="M42.6001 48.4C42.6001 47.6265 43.2266 47 44.0001 47C44.7736 47 45.4001 47.6265 45.4001 48.4V55.35L45.4001 54C45.4001 53.2265 46.0266 52.6 46.8001 52.6C47.5736 52.6 48.2001 53.2265 48.2001 54V55.6764C48.2127 54.9141 48.8346 53.3 49.6 53.3C50.3731 53.3 50.9999 53.9268 51 54.7C51 54.7 51.0411 55.7411 51.1332 55.8033C51.3572 55.3285 51.8402 54 52.4 54C53.1732 54 53.8 54.6268 53.8 55.4V62.4C53.8 63.9463 52.5463 65.2 51 65.2H46.3198C44.8344 65.2 43.4099 64.6099 42.3599 63.5599L40.15 61.35L37 59.9402C37.0051 58.6033 38.0526 58.2 39.1 58.2C40.0023 58.2 40.8136 58.3407 42.6 59.25L42.6001 48.4Z" fill="white"/>
            <linearGradient id="paint0_linear_22728_11375" x1="46.0584" y1="22" x2="46.0584" y2="42.125" gradientUnits="userSpaceOnUse">
                <stop stop-color="#EF8080"/>
                <stop offset="1" stop-color="#F0145A"/>
            </linearGradient>
            <linearGradient id="paint1_linear_22728_11375" x1="46" y1="37.6328" x2="46" y2="70.0018" gradientUnits="userSpaceOnUse">
                <stop stop-color="#EF8080"/>
                <stop offset="1" stop-color="#F0145A"/>
            </linearGradient>
    </symbol>

    <symbol id="icon_2" viewBox="0 0 93 92" fill="none">
        <rect x="0.333496" width="92" height="92" rx="24" fill="white"/>
        <path fill-rule="evenodd" clip-rule="evenodd" d="M67.7847 49.0781V66.3733C67.7847 69.4666 65.3604 72.0017 62.3966 72.0017H30.3036C27.3398 72.0017 24.9155 69.4666 24.9155 66.3733V49.0781H41.5816V56.5889L46.3501 59.7224L51.1186 56.5889V49.0781H67.7847Z" fill="url(#paint0_linear_22728_11381)"/>
        <path fill-rule="evenodd" clip-rule="evenodd" d="M43.252 49.0781V55.6866L46.35 57.7222L49.4481 55.6866V49.0781H43.252Z" fill="url(#paint1_linear_22728_11381)"/>
        <path fill-rule="evenodd" clip-rule="evenodd" d="M26.4069 29.1445H66.2934C68.1758 29.1445 69.7143 30.8526 69.7143 32.94V43.1931C69.7143 45.2805 68.1758 46.9886 66.2934 46.9886H50.6475H42.0529H26.4069C24.5245 46.9886 22.9861 45.2805 22.9861 43.1931V32.94C22.9861 30.8526 24.5245 29.1445 26.4069 29.1445Z" fill="url(#paint2_linear_22728_11381)"/>
        <path fill-rule="evenodd" clip-rule="evenodd" d="M38.0455 19.9531H54.655C56.1982 19.9531 57.461 21.2159 57.461 22.7591V27.1365H53.9035V24.5496C53.9035 23.8522 53.3333 23.2797 52.6359 23.2797H40.0645C39.3672 23.2797 38.797 23.8522 38.797 24.5496V27.1365H35.2395V22.7591C35.2395 21.2159 36.5023 19.9531 38.0455 19.9531Z" fill="url(#paint3_linear_22728_11381)"/>
            <linearGradient id="paint0_linear_22728_11381" x1="46.3501" y1="49.0781" x2="46.3501" y2="72.0017" gradientUnits="userSpaceOnUse">
                <stop stop-color="#EF8080"/>
                <stop offset="1" stop-color="#F0145A"/>
            </linearGradient>
            <linearGradient id="paint1_linear_22728_11381" x1="46.35" y1="49.0781" x2="46.35" y2="57.7222" gradientUnits="userSpaceOnUse">
                <stop stop-color="#EF8080"/>
                <stop offset="1" stop-color="#F0145A"/>
            </linearGradient>
            <linearGradient id="paint2_linear_22728_11381" x1="46.3502" y1="29.1445" x2="46.3502" y2="46.9886" gradientUnits="userSpaceOnUse">
                <stop stop-color="#EF8080"/>
                <stop offset="1" stop-color="#F0145A"/>
            </linearGradient>
            <linearGradient id="paint3_linear_22728_11381" x1="46.3502" y1="19.9531" x2="46.3502" y2="27.1365" gradientUnits="userSpaceOnUse">
                <stop stop-color="#EF8080"/>
                <stop offset="1" stop-color="#F0145A"/>
            </linearGradient>
    </symbol>

    <symbol id="icon_3" viewBox="0 0 93 92" fill="none">
        <rect x="0.666748" width="92" height="92" rx="24" fill="white"/>
            <path d="M75.1932 51.7273C74.5057 51.4426 73.782 51.2982 73.0421 51.2982C71.4104 51.2982 69.9031 51.9946 68.8565 53.1615L67.6365 52.6562L64.1564 51.2147C64.6502 49.5616 64.9167 47.8113 64.9167 45.9998C64.9167 44.1883 64.6501 42.4381 64.1564 40.7849L67.6365 39.3435L68.8565 38.8381C69.9031 40.0051 71.4104 40.7014 73.0421 40.7014C73.782 40.7014 74.5057 40.5571 75.1932 40.2722C78.0586 39.0852 79.4243 35.7883 78.2373 32.9227C77.3633 30.8128 75.3229 29.4493 73.0391 29.4493C72.2992 29.4493 71.5755 29.5937 70.888 29.8786C68.6297 30.814 67.3042 33.0598 67.4242 35.3722L66.1971 35.8805L62.7181 37.3215C61.028 34.208 58.4585 31.6383 55.345 29.9483L56.786 26.4694L57.2938 25.2436C57.3921 25.2487 57.4908 25.2517 57.5898 25.2517C59.8736 25.2517 61.914 23.8884 62.7881 21.7784C63.975 18.9129 62.6094 15.6159 59.7439 14.4289C59.0563 14.1444 58.3326 14 57.5928 14C55.3089 14 53.2685 15.3634 52.3944 17.4734C51.459 19.7316 52.1098 22.257 53.8298 23.8072L53.3233 25.0301L51.8818 28.5102C50.2286 28.0165 48.4784 27.7498 46.6669 27.7498C44.8554 27.7498 43.1052 28.0165 41.452 28.5102L40.0105 25.0301L39.504 23.8072C41.224 22.257 41.8748 19.7316 40.9394 17.4732C40.0653 15.3634 38.0247 14 35.7409 14C35.0011 14 34.2773 14.1444 33.5898 14.4292C30.7244 15.6162 29.3587 18.9131 30.5457 21.7787C31.4197 23.8886 33.4602 25.2521 35.7439 25.2521C35.8429 25.2521 35.9416 25.2491 36.0399 25.244L36.5477 26.4697L37.9887 29.9487C34.8752 31.6388 32.3056 34.2083 30.6156 37.3218L27.1366 35.8808L25.9094 35.3726C26.0294 33.0602 24.7039 30.8143 22.4457 29.8788C21.7582 29.5941 21.0345 29.4497 20.2946 29.4497C18.0107 29.4497 15.9703 30.8131 15.0962 32.9231C13.9093 35.7886 15.275 39.0856 18.1405 40.2726C18.828 40.5573 19.5517 40.7017 20.2916 40.7017C21.9233 40.7017 23.4306 40.0053 24.4772 38.8383L25.6972 39.3437L29.1773 40.7852C28.6834 42.4383 28.4169 44.1886 28.4169 46.0001C28.4169 47.8116 28.6836 49.5618 29.1773 51.2149L25.6971 52.6562L24.4771 53.1615C23.4304 51.9946 21.9232 51.2982 20.2915 51.2982C19.5516 51.2982 18.8278 51.4426 18.1403 51.7274C15.275 52.9144 13.9092 56.2113 15.0962 59.0769C15.9702 61.1868 18.0107 62.5503 20.2945 62.5503C21.0343 62.5503 21.7581 62.4059 22.4456 62.121C24.7038 61.1857 26.0293 58.9398 25.9093 56.6274L27.1364 56.1192L30.6154 54.6782C32.3056 57.7917 34.8751 60.3613 37.9885 62.0513L36.5476 65.5303L36.0398 66.756C35.9414 66.7509 35.8428 66.7479 35.7438 66.7479C33.4599 66.7479 31.4196 68.1113 30.5454 70.2213C29.3586 73.0868 30.7242 76.3838 33.5897 77.5708C34.2772 77.8555 35.0009 77.9999 35.7408 77.9999C38.0247 77.9999 40.065 76.6365 40.9392 74.5265C41.8745 72.2683 41.2238 69.7429 39.5038 68.1926L40.0103 66.9698L41.4518 63.4897C43.1049 63.9834 44.8552 64.25 46.6667 64.25C48.4781 64.25 50.2284 63.9834 51.8815 63.4897L53.323 66.9698L53.8295 68.1926C52.1095 69.7429 51.4588 72.2683 52.3941 74.5266C53.2681 76.6365 55.3086 78 57.5924 78C58.3323 78 59.056 77.8556 59.7435 77.5708C62.6089 76.3838 63.9746 73.0869 62.7876 70.2213C61.9136 68.1114 59.8731 66.7479 57.5894 66.7479C57.4904 66.7479 57.3918 66.7509 57.2934 66.756L56.7856 65.5303L55.3446 62.0513C58.4581 60.3612 61.0278 57.7917 62.7178 54.6782L66.1967 56.1192L67.4239 56.6274C67.3039 58.9398 68.6294 61.1857 70.8876 62.1212C71.5751 62.4059 72.2989 62.5503 73.0387 62.5503C75.3226 62.5503 77.363 61.1869 78.2371 59.0769C79.4243 56.2113 78.0588 52.9143 75.1932 51.7273ZM46.6669 60.4998C38.6717 60.4998 32.1669 53.995 32.1669 45.9998C32.1669 38.0046 38.6717 31.4998 46.6669 31.4998C54.6621 31.4998 61.1669 38.0046 61.1669 45.9998C61.1669 53.995 54.662 60.4998 46.6669 60.4998Z" fill="black"/>
            <path d="M75.1932 51.7273C74.5057 51.4426 73.782 51.2982 73.0421 51.2982C71.4104 51.2982 69.9031 51.9946 68.8565 53.1615L67.6365 52.6562L64.1564 51.2147C64.6502 49.5616 64.9167 47.8113 64.9167 45.9998C64.9167 44.1883 64.6501 42.4381 64.1564 40.7849L67.6365 39.3435L68.8565 38.8381C69.9031 40.0051 71.4104 40.7014 73.0421 40.7014C73.782 40.7014 74.5057 40.5571 75.1932 40.2722C78.0586 39.0852 79.4243 35.7883 78.2373 32.9227C77.3633 30.8128 75.3229 29.4493 73.0391 29.4493C72.2992 29.4493 71.5755 29.5937 70.888 29.8786C68.6297 30.814 67.3042 33.0598 67.4242 35.3722L66.1971 35.8805L62.7181 37.3215C61.028 34.208 58.4585 31.6383 55.345 29.9483L56.786 26.4694L57.2938 25.2436C57.3921 25.2487 57.4908 25.2517 57.5898 25.2517C59.8736 25.2517 61.914 23.8884 62.7881 21.7784C63.975 18.9129 62.6094 15.6159 59.7439 14.4289C59.0563 14.1444 58.3326 14 57.5928 14C55.3089 14 53.2685 15.3634 52.3944 17.4734C51.459 19.7316 52.1098 22.257 53.8298 23.8072L53.3233 25.0301L51.8818 28.5102C50.2286 28.0165 48.4784 27.7498 46.6669 27.7498C44.8554 27.7498 43.1052 28.0165 41.452 28.5102L40.0105 25.0301L39.504 23.8072C41.224 22.257 41.8748 19.7316 40.9394 17.4732C40.0653 15.3634 38.0247 14 35.7409 14C35.0011 14 34.2773 14.1444 33.5898 14.4292C30.7244 15.6162 29.3587 18.9131 30.5457 21.7787C31.4197 23.8886 33.4602 25.2521 35.7439 25.2521C35.8429 25.2521 35.9416 25.2491 36.0399 25.244L36.5477 26.4697L37.9887 29.9487C34.8752 31.6388 32.3056 34.2083 30.6156 37.3218L27.1366 35.8808L25.9094 35.3726C26.0294 33.0602 24.7039 30.8143 22.4457 29.8788C21.7582 29.5941 21.0345 29.4497 20.2946 29.4497C18.0107 29.4497 15.9703 30.8131 15.0962 32.9231C13.9093 35.7886 15.275 39.0856 18.1405 40.2726C18.828 40.5573 19.5517 40.7017 20.2916 40.7017C21.9233 40.7017 23.4306 40.0053 24.4772 38.8383L25.6972 39.3437L29.1773 40.7852C28.6834 42.4383 28.4169 44.1886 28.4169 46.0001C28.4169 47.8116 28.6836 49.5618 29.1773 51.2149L25.6971 52.6562L24.4771 53.1615C23.4304 51.9946 21.9232 51.2982 20.2915 51.2982C19.5516 51.2982 18.8278 51.4426 18.1403 51.7274C15.275 52.9144 13.9092 56.2113 15.0962 59.0769C15.9702 61.1868 18.0107 62.5503 20.2945 62.5503C21.0343 62.5503 21.7581 62.4059 22.4456 62.121C24.7038 61.1857 26.0293 58.9398 25.9093 56.6274L27.1364 56.1192L30.6154 54.6782C32.3056 57.7917 34.8751 60.3613 37.9885 62.0513L36.5476 65.5303L36.0398 66.756C35.9414 66.7509 35.8428 66.7479 35.7438 66.7479C33.4599 66.7479 31.4196 68.1113 30.5454 70.2213C29.3586 73.0868 30.7242 76.3838 33.5897 77.5708C34.2772 77.8555 35.0009 77.9999 35.7408 77.9999C38.0247 77.9999 40.065 76.6365 40.9392 74.5265C41.8745 72.2683 41.2238 69.7429 39.5038 68.1926L40.0103 66.9698L41.4518 63.4897C43.1049 63.9834 44.8552 64.25 46.6667 64.25C48.4781 64.25 50.2284 63.9834 51.8815 63.4897L53.323 66.9698L53.8295 68.1926C52.1095 69.7429 51.4588 72.2683 52.3941 74.5266C53.2681 76.6365 55.3086 78 57.5924 78C58.3323 78 59.056 77.8556 59.7435 77.5708C62.6089 76.3838 63.9746 73.0869 62.7876 70.2213C61.9136 68.1114 59.8731 66.7479 57.5894 66.7479C57.4904 66.7479 57.3918 66.7509 57.2934 66.756L56.7856 65.5303L55.3446 62.0513C58.4581 60.3612 61.0278 57.7917 62.7178 54.6782L66.1967 56.1192L67.4239 56.6274C67.3039 58.9398 68.6294 61.1857 70.8876 62.1212C71.5751 62.4059 72.2989 62.5503 73.0387 62.5503C75.3226 62.5503 77.363 61.1869 78.2371 59.0769C79.4243 56.2113 78.0588 52.9143 75.1932 51.7273ZM46.6669 60.4998C38.6717 60.4998 32.1669 53.995 32.1669 45.9998C32.1669 38.0046 38.6717 31.4998 46.6669 31.4998C54.6621 31.4998 61.1669 38.0046 61.1669 45.9998C61.1669 53.995 54.662 60.4998 46.6669 60.4998Z" fill="url(#paint0_linear_22728_11387)"/>
            <path d="M46.6667 35.25C40.7392 35.25 35.9167 40.0725 35.9167 46C35.9167 51.9275 40.7392 56.75 46.6667 56.75C52.5942 56.75 57.4167 51.9275 57.4167 46C57.4167 40.0725 52.5942 35.25 46.6667 35.25ZM48.5417 50.125H44.7917V41.875H48.5417V50.125Z" fill="black"/>
            <path d="M46.6667 35.25C40.7392 35.25 35.9167 40.0725 35.9167 46C35.9167 51.9275 40.7392 56.75 46.6667 56.75C52.5942 56.75 57.4167 51.9275 57.4167 46C57.4167 40.0725 52.5942 35.25 46.6667 35.25ZM48.5417 50.125H44.7917V41.875H48.5417V50.125Z" fill="url(#paint1_linear_22728_11387)"/>
            <linearGradient id="paint0_linear_22728_11387" x1="46.6668" y1="14" x2="46.6668" y2="78" gradientUnits="userSpaceOnUse">
                <stop stop-color="#EF8080"/>
                <stop offset="1" stop-color="#F0145A"/>
            </linearGradient>
            <linearGradient id="paint1_linear_22728_11387" x1="46.6667" y1="35.25" x2="46.6667" y2="56.75" gradientUnits="userSpaceOnUse">
                <stop stop-color="#EF8080"/>
                <stop offset="1" stop-color="#F0145A"/>
            </linearGradient>
            <clipPath id="clip0_22728_11387">
                <rect width="64" height="64" fill="white" transform="translate(14.6667 14)"/>
            </clipPath>
    </symbol>

    <symbol id="icon_4" viewBox="0 0 92 92" fill="none">
        <rect width="92" height="92" rx="24" fill="white"/>
        <path d="M56.0057 70H37.0057V76H56.0057V70Z" fill="black"/>
        <path d="M56.0057 70H37.0057V76H56.0057V70Z" fill="url(#paint0_linear_22728_11394)"/>
        <path d="M29.1727 16.4517L15.7377 29.8867L19.2732 33.4223L32.7083 19.9872L29.1727 16.4517Z" fill="black"/>
        <path d="M29.1727 16.4517L15.7377 29.8867L19.2732 33.4223L32.7083 19.9872L29.1727 16.4517Z" fill="url(#paint1_linear_22728_11394)"/>
        <path d="M63.1127 16.3199L59.5771 19.8555L73.0122 33.2905L76.5477 29.755L63.1127 16.3199Z" fill="black"/>
        <path d="M63.1127 16.3199L59.5771 19.8555L73.0122 33.2905L76.5477 29.755L63.1127 16.3199Z" fill="url(#paint2_linear_22728_11394)"/>
        <path d="M58.5564 23.7084L55.8651 23.5944C55.089 23.4848 54.2981 23.5571 53.5548 23.8056C52.8115 24.054 52.1361 24.4718 51.5819 25.026L46.0775 30.5305L40.3239 24.7769C39.8244 24.2888 39.2011 23.9463 38.5214 23.7861C37.8416 23.626 37.131 23.6543 36.4661 23.868C35.8388 24.0587 35.1715 24.0755 34.5355 23.9164C33.8995 23.7573 33.3186 23.4284 32.8551 22.9648L32.0012 22.1109L21.3945 32.7175L23.1225 34.4455L23.0085 37.1368C22.8989 37.9128 22.9712 38.7037 23.2197 39.447C23.4681 40.1903 23.8859 40.8657 24.4401 41.4199L34.0525 51.0324C34.181 49.7705 34.7856 48.6051 35.7432 47.7734L32.7482 44.7785L33.4553 44.0714L36.5836 47.1996C37.027 46.9472 37.5068 46.7649 38.0059 46.6591V42.9651L36.2838 41.243L36.9908 40.5358L38.0059 41.5509V36.201C37.9948 35.3168 38.3086 34.4592 38.8879 33.791C39.4672 33.1228 40.2716 32.6904 41.1485 32.576C41.4792 32.544 41.8128 32.559 42.1393 32.6208L40.9098 31.3914L41.6169 30.6843L43.4131 32.4804C43.7312 31.864 44.2233 31.3547 44.8283 31.0154C45.4333 30.6762 46.1246 30.5221 46.8165 30.5721C47.6513 30.6697 48.4258 31.0562 49.0057 31.6647C49.5855 32.2733 49.9342 33.0655 49.9913 33.9041C50.5596 33.634 51.1894 33.5194 51.8165 33.5721C52.7075 33.6788 53.5273 34.1126 54.1166 34.7895C54.7059 35.4663 55.0229 36.3379 55.0059 37.2352V40.6591C55.916 40.8491 56.7551 41.289 57.4292 41.9293C58.1032 42.5696 58.5855 43.3851 58.822 44.2842L61.6105 41.4957L62.3176 42.2029L59.0023 45.5181C59.0024 45.5319 59.0059 45.5447 59.0059 45.5585V48.8785C59.9043 48.7845 60.7437 48.3864 61.3848 47.7501L68.225 40.9099C68.7131 40.4104 69.0556 39.7871 69.2158 39.1073C69.3759 38.4276 69.3476 37.7169 69.1339 37.0521C68.9431 36.4248 68.9264 35.7575 69.0855 35.1215C69.2445 34.4854 69.5735 33.9046 70.0371 33.441L70.8909 32.5871L60.2844 21.9805L58.5564 23.7084Z" fill="black"/>
        <path d="M58.5564 23.7084L55.8651 23.5944C55.089 23.4848 54.2981 23.5571 53.5548 23.8056C52.8115 24.054 52.1361 24.4718 51.5819 25.026L46.0775 30.5305L40.3239 24.7769C39.8244 24.2888 39.2011 23.9463 38.5214 23.7861C37.8416 23.626 37.131 23.6543 36.4661 23.868C35.8388 24.0587 35.1715 24.0755 34.5355 23.9164C33.8995 23.7573 33.3186 23.4284 32.8551 22.9648L32.0012 22.1109L21.3945 32.7175L23.1225 34.4455L23.0085 37.1368C22.8989 37.9128 22.9712 38.7037 23.2197 39.447C23.4681 40.1903 23.8859 40.8657 24.4401 41.4199L34.0525 51.0324C34.181 49.7705 34.7856 48.6051 35.7432 47.7734L32.7482 44.7785L33.4553 44.0714L36.5836 47.1996C37.027 46.9472 37.5068 46.7649 38.0059 46.6591V42.9651L36.2838 41.243L36.9908 40.5358L38.0059 41.5509V36.201C37.9948 35.3168 38.3086 34.4592 38.8879 33.791C39.4672 33.1228 40.2716 32.6904 41.1485 32.576C41.4792 32.544 41.8128 32.559 42.1393 32.6208L40.9098 31.3914L41.6169 30.6843L43.4131 32.4804C43.7312 31.864 44.2233 31.3547 44.8283 31.0154C45.4333 30.6762 46.1246 30.5221 46.8165 30.5721C47.6513 30.6697 48.4258 31.0562 49.0057 31.6647C49.5855 32.2733 49.9342 33.0655 49.9913 33.9041C50.5596 33.634 51.1894 33.5194 51.8165 33.5721C52.7075 33.6788 53.5273 34.1126 54.1166 34.7895C54.7059 35.4663 55.0229 36.3379 55.0059 37.2352V40.6591C55.916 40.8491 56.7551 41.289 57.4292 41.9293C58.1032 42.5696 58.5855 43.3851 58.822 44.2842L61.6105 41.4957L62.3176 42.2029L59.0023 45.5181C59.0024 45.5319 59.0059 45.5447 59.0059 45.5585V48.8785C59.9043 48.7845 60.7437 48.3864 61.3848 47.7501L68.225 40.9099C68.7131 40.4104 69.0556 39.7871 69.2158 39.1073C69.3759 38.4276 69.3476 37.7169 69.1339 37.0521C68.9431 36.4248 68.9264 35.7575 69.0855 35.1215C69.2445 34.4854 69.5735 33.9046 70.0371 33.441L70.8909 32.5871L60.2844 21.9805L58.5564 23.7084Z" fill="url(#paint3_linear_22728_11394)"/>
        <path d="M43.8804 35.6901C43.8044 35.0405 43.476 34.4468 42.966 34.0373C42.4559 33.6278 41.8053 33.4353 41.1546 33.5015C40.5234 33.5886 39.9463 33.9046 39.5329 34.3894C39.1194 34.8742 38.8986 35.4941 38.9124 36.1311V47.4885C37.8515 47.4885 36.8341 47.9099 36.0839 48.66C35.3338 49.4102 34.9124 50.4276 34.9124 51.4885V61.1619C34.9205 61.8603 35.1189 62.5432 35.4864 63.1371C35.8538 63.7311 36.3763 64.2135 36.9976 64.5325C37.576 64.8412 38.0597 65.3012 38.3969 65.8634C38.7342 66.4256 38.9123 67.0689 38.9124 67.7245V68.9321H53.9124V66.4885L55.896 64.6661C56.5222 64.1948 57.0303 63.5844 57.3803 62.8831C57.7302 62.1818 57.9123 61.4088 57.9124 60.6251V45.4885C57.9124 44.4276 57.4909 43.4102 56.7408 42.66C55.9906 41.9099 54.9732 41.4885 53.9124 41.4885V37.1659C53.9293 36.5187 53.7062 35.888 53.286 35.3955C52.8657 34.903 52.2781 34.5834 51.6362 34.4983C51.0063 34.4426 50.3787 34.6285 49.8807 35.0183C49.3826 35.408 49.0513 35.9725 48.9539 36.5974H49.4124V52.0407H48.4124V36.5974H48.9124V34.1659C48.9293 33.5187 48.7062 32.888 48.286 32.3955C47.8657 31.903 47.2781 31.5834 46.6362 31.4983C46.2904 31.4673 45.942 31.5086 45.613 31.6196C45.2841 31.7306 44.9819 31.909 44.7256 32.1432C44.4694 32.3775 44.2647 32.6625 44.1247 32.9802C43.9847 33.2979 43.9124 33.6413 43.9124 33.9885V35.6901H44.4124V51.1335H43.4124V35.6901H43.8804ZM39.3115 56.0407H38.3115V48.0407H39.3115V56.0407ZM53.4124 41.799H54.4124V52.2423H53.4124V41.799Z" fill="black"/>
        <path d="M43.8804 35.6901C43.8044 35.0405 43.476 34.4468 42.966 34.0373C42.4559 33.6278 41.8053 33.4353 41.1546 33.5015C40.5234 33.5886 39.9463 33.9046 39.5329 34.3894C39.1194 34.8742 38.8986 35.4941 38.9124 36.1311V47.4885C37.8515 47.4885 36.8341 47.9099 36.0839 48.66C35.3338 49.4102 34.9124 50.4276 34.9124 51.4885V61.1619C34.9205 61.8603 35.1189 62.5432 35.4864 63.1371C35.8538 63.7311 36.3763 64.2135 36.9976 64.5325C37.576 64.8412 38.0597 65.3012 38.3969 65.8634C38.7342 66.4256 38.9123 67.0689 38.9124 67.7245V68.9321H53.9124V66.4885L55.896 64.6661C56.5222 64.1948 57.0303 63.5844 57.3803 62.8831C57.7302 62.1818 57.9123 61.4088 57.9124 60.6251V45.4885C57.9124 44.4276 57.4909 43.4102 56.7408 42.66C55.9906 41.9099 54.9732 41.4885 53.9124 41.4885V37.1659C53.9293 36.5187 53.7062 35.888 53.286 35.3955C52.8657 34.903 52.2781 34.5834 51.6362 34.4983C51.0063 34.4426 50.3787 34.6285 49.8807 35.0183C49.3826 35.408 49.0513 35.9725 48.9539 36.5974H49.4124V52.0407H48.4124V36.5974H48.9124V34.1659C48.9293 33.5187 48.7062 32.888 48.286 32.3955C47.8657 31.903 47.2781 31.5834 46.6362 31.4983C46.2904 31.4673 45.942 31.5086 45.613 31.6196C45.2841 31.7306 44.9819 31.909 44.7256 32.1432C44.4694 32.3775 44.2647 32.6625 44.1247 32.9802C43.9847 33.2979 43.9124 33.6413 43.9124 33.9885V35.6901H44.4124V51.1335H43.4124V35.6901H43.8804ZM39.3115 56.0407H38.3115V48.0407H39.3115V56.0407ZM53.4124 41.799H54.4124V52.2423H53.4124V41.799Z" fill="url(#paint4_linear_22728_11394)"/>
            <linearGradient id="paint0_linear_22728_11394" x1="46.5057" y1="70" x2="46.5057" y2="76" gradientUnits="userSpaceOnUse">
                <stop stop-color="#EF8080"/>
                <stop offset="1" stop-color="#F0145A"/>
            </linearGradient>
            <linearGradient id="paint1_linear_22728_11394" x1="22.4552" y1="23.1692" x2="25.9907" y2="26.7047" gradientUnits="userSpaceOnUse">
                <stop stop-color="#EF8080"/>
                <stop offset="1" stop-color="#F0145A"/>
            </linearGradient>
            <linearGradient id="paint2_linear_22728_11394" x1="61.3449" y1="18.0877" x2="74.78" y2="31.5228" gradientUnits="userSpaceOnUse">
                <stop stop-color="#EF8080"/>
                <stop offset="1" stop-color="#F0145A"/>
            </linearGradient>
            <linearGradient id="paint3_linear_22728_11394" x1="46.1427" y1="21.9805" x2="46.1427" y2="51.0324" gradientUnits="userSpaceOnUse">
                <stop stop-color="#EF8080"/>
                <stop offset="1" stop-color="#F0145A"/>
            </linearGradient>
            <linearGradient id="paint4_linear_22728_11394" x1="46.4124" y1="31.4883" x2="46.4124" y2="68.9321" gradientUnits="userSpaceOnUse">
                <stop stop-color="#EF8080"/>
                <stop offset="1" stop-color="#F0145A"/>
            </linearGradient>
    </symbol>

    <symbol id="icon_5" viewBox="0 0 93 92" fill="none">
        <rect x="0.333496" width="92" height="92" rx="24" fill="white"/>
        <path d="M55.5652 51.6961C57.9174 51.6961 60.2431 52.2844 62.2912 53.3974C62.6631 53.5979 63.0044 53.8368 63.3529 54.0667C66.7142 47.4869 68.488 40.5278 68.488 33.7388C68.488 33.3573 68.488 32.9634 68.4758 32.5696C68.4512 32.0158 68.0573 31.5358 67.5034 31.4127C60.0696 29.7881 53.3373 25.7634 48.045 19.7819L47.2573 18.8834C47.0234 18.6127 46.6912 18.465 46.3342 18.465C45.9527 18.4158 45.6573 18.6004 45.4234 18.8589L44.2173 20.1881C39.1958 25.7142 32.8696 29.5296 25.9281 31.2281L25.1281 31.425C24.5865 31.5481 24.205 32.0281 24.1927 32.5819C23.7496 49.8865 33.965 62.3296 38.3712 66.8834C39.5641 68.1082 40.8941 69.3256 42.1588 70.3319C41.6844 68.9011 41.4113 67.3957 41.4113 65.8499C41.4113 58.0452 47.7605 51.6961 55.5652 51.6961Z" fill="url(#paint0_linear_22728_11400)"/>
        <path d="M61.1156 55.5593C59.4172 54.6363 57.4972 54.1562 55.5649 54.1562C49.1156 54.1562 43.8726 59.3993 43.8726 65.8486C43.8726 68.027 44.4634 70.1562 45.5957 71.9778C47.7495 75.4609 51.4665 77.5409 55.5649 77.5409C62.0018 77.5409 67.2572 72.2978 67.2572 65.8486C67.2572 61.5409 64.9064 57.6024 61.1156 55.5593ZM61.5531 64.2918L52.4082 71.4084L49.2862 66.5249C48.9197 65.9522 49.0873 65.1914 49.66 64.8254C50.2334 64.4588 50.9948 64.6277 51.3596 65.1992L53.0272 67.8074L60.0411 62.3495C60.5765 61.9318 61.3505 62.0273 61.7682 62.5646C62.1859 63.1013 62.0891 63.8747 61.5531 64.2918Z" fill="url(#paint1_linear_22728_11400)"/>
            <linearGradient id="paint0_linear_22728_11400" x1="46.3334" y1="18.457" x2="46.3334" y2="70.3319" gradientUnits="userSpaceOnUse">
                <stop stop-color="#EF8080"/>
                <stop offset="1" stop-color="#F0145A"/>
            </linearGradient>
            <linearGradient id="paint1_linear_22728_11400" x1="55.5649" y1="54.1562" x2="55.5649" y2="77.5409" gradientUnits="userSpaceOnUse">
                <stop stop-color="#EF8080"/>
                <stop offset="1" stop-color="#F0145A"/>
            </linearGradient>
    </symbol>

    <symbol id="icon_6" viewBox="0 0 93 92" fill="none">
            <rect x="0.666748" width="92" height="92" rx="24" fill="white"/>
            <path d="M55.0187 34.389C55.7507 35.121 56.9367 35.123 57.6687 34.389L60.2767 31.781C61.0077 31.049 61.0057 29.863 60.2767 29.13L53.6937 22.549C52.9637 21.817 51.7777 21.817 51.0457 22.549L48.4367 25.157C47.7067 25.889 47.7067 27.075 48.4367 27.805L55.0187 34.389Z" fill="url(#paint0_linear_22728_11406)"/>
            <path d="M39.4328 50.2652C40.1638 50.9942 41.3498 50.9942 42.0808 50.2652L44.6898 47.6553C45.4218 46.9253 45.4218 45.7383 44.6898 45.0063L38.1068 38.4233C37.3758 37.6933 36.1898 37.6913 35.4578 38.4233L32.8498 41.0312C32.1178 41.7632 32.1198 42.9492 32.8498 43.6812L39.4328 50.2652Z" fill="url(#paint1_linear_22728_11406)"/>
            <path d="M69.3149 50.8912L66.6679 48.2412C65.9339 47.5112 64.7509 47.5112 64.0199 48.2412L62.8589 49.4012L51.6539 38.1942L54.0809 35.7662L47.3479 29.0352L44.9199 31.4632L41.8279 34.5532L39.4539 36.9272L46.1859 43.6602L48.5629 41.2872L59.7659 52.4922L58.7179 53.5412C57.9859 54.2702 57.9839 55.4572 58.7179 56.1892L61.3649 58.8372C62.0989 59.5712 63.2839 59.5712 64.0149 58.8372L69.3139 53.5402C70.0469 52.8072 70.0469 51.6232 69.3149 50.8912Z" fill="url(#paint2_linear_22728_11406)"/>
            <path d="M49.7437 58.9425C49.7437 57.7435 48.7717 56.7695 47.5707 56.7695H30.6027C29.4027 56.7695 28.4297 57.7435 28.4297 58.9425V62.4695H23.6667V69.8585H54.2247V62.4695H49.7437V58.9425Z" fill="url(#paint3_linear_22728_11406)"/>
                <linearGradient id="paint0_linear_22728_11406" x1="54.3567" y1="22" x2="54.3567" y2="34.9388" gradientUnits="userSpaceOnUse">
                    <stop stop-color="#EF8080"/>
                    <stop offset="1" stop-color="#F0145A"/>
                </linearGradient>
                <linearGradient id="paint1_linear_22728_11406" x1="38.7701" y1="37.875" x2="38.7701" y2="50.812" gradientUnits="userSpaceOnUse">
                    <stop stop-color="#EF8080"/>
                    <stop offset="1" stop-color="#F0145A"/>
                </linearGradient>
                <linearGradient id="paint2_linear_22728_11406" x1="54.6588" y1="29.0352" x2="54.6588" y2="59.3877" gradientUnits="userSpaceOnUse">
                    <stop stop-color="#EF8080"/>
                    <stop offset="1" stop-color="#F0145A"/>
                </linearGradient>
                <linearGradient id="paint3_linear_22728_11406" x1="38.9457" y1="56.7695" x2="38.9457" y2="69.8585" gradientUnits="userSpaceOnUse">
                    <stop stop-color="#EF8080"/>
                    <stop offset="1" stop-color="#F0145A"/>
                </linearGradient>
    </symbol>
</svg>
